<svg xmlns="http://www.w3.org/2000/svg" viewBox="0 0 32 32">
  <rect x="9" y="2" width="3" height="6" rx="1.5" fill="currentColor"/>
  <rect x="20" y="2" width="3" height="6" rx="1.5" fill="currentColor"/>
  <path fill="currentColor" fill-rule="evenodd" d="M6 5a3 3 0 0 0-3 3v18a3 3 0 0 0 3 3h20a3 3 0 0 0 3-3V8a3 3 0 0 0-3-3H6Zm-1 7h22v14a1 1 0 0 1-1 1H6a1 1 0 0 1-1-1V12Z"/>
  <g fill="currentColor" opacity="0.45">
    <rect x="8" y="15" width="5" height="4" rx="1"/>
    <rect x="15" y="15" width="5" height="4" rx="1"/>
    <rect x="22" y="15" width="4" height="4" rx="1"/>
    <rect x="8" y="21" width="5" height="4" rx="1"/>
    <rect x="22" y="21" width="4" height="4" rx="1"/>
  </g>
  <rect x="15" y="21" width="5" height="4" rx="1" fill="currentColor"/>
</svg>
